<svg width="15" height="15" viewBox="0 0 15 15" fill="none" xmlns="http://www.w3.org/2000/svg">
<path d="M8.41709 9.27439C8.86995 9.3366 9.29544 9.01803 9.2755 8.56134C9.24014 7.75136 8.99046 6.9625 8.54606 6.28278C7.95134 5.37317 7.04956 4.72272 6.01284 4.4556C4.97612 4.18848 3.87708 4.3234 2.9255 4.83459C1.97392 5.34578 1.23646 6.19745 0.853878 7.22703C0.471297 8.25661 0.470395 9.39198 0.851343 10.4164C1.23229 11.4409 1.96841 12.2826 2.91919 12.781C3.86996 13.2795 4.9688 13.3996 6.00596 13.1185C6.78235 12.9081 7.48348 12.4839 8.03704 11.899C8.3494 11.569 8.23661 11.0494 7.86092 10.7937V10.7937C7.13789 10.3017 7.55065 9.15535 8.41709 9.27439V9.27439Z" fill="#FD653D"/>
<ellipse cx="6.67358" cy="2.14634" rx="1.45151" ry="1.45439" transform="rotate(7.82247 6.67358 2.14634)" fill="#FD653D"/>
<ellipse cx="10.569" cy="4.26255" rx="1.45151" ry="1.45439" transform="rotate(7.82247 10.569 4.26255)" fill="#FD653D"/>
<ellipse cx="11.9611" cy="7.84166" rx="1.45151" ry="1.45439" transform="rotate(7.82247 11.9611 7.84166)" fill="#FD653D"/>
<path d="M12.5479 12.4393C12.6816 12.4577 12.8071 12.3637 12.8028 12.2288C12.7943 11.9537 12.7078 11.6848 12.551 11.4547C12.3481 11.1569 12.042 10.9453 11.6921 10.861C11.3421 10.7767 10.9733 10.8257 10.6572 10.9984C10.3412 11.1712 10.1004 11.4555 9.98167 11.796C9.86293 12.1365 9.8747 12.5091 10.0147 12.8413C10.1547 13.1735 10.4129 13.4416 10.7392 13.5937C11.0655 13.7458 11.4367 13.7709 11.7806 13.6643C12.0463 13.5818 12.2812 13.4252 12.459 13.2152C12.5461 13.1122 12.5063 12.9606 12.3904 12.8917V12.8917C12.1613 12.7557 12.2839 12.403 12.5479 12.4393V12.4393Z" fill="#FD653D"/>
</svg>
